<mxfile host="app.diagrams.net" modified="2024-03-16T05:55:30.476Z" agent="Mozilla/5.0 (Windows NT 10.0; Win64; x64; rv:109.0) Gecko/20100101 Firefox/110.0" version="24.0.7" etag="ZBfAf_vsTdHyV3Ch04PB" type="github">
  <diagram name="第 1 页" id="2pjJObeSIWr4Qx5MixKJ">
    <mxGraphModel>
      <root>
        <mxCell id="0" />
        <mxCell id="1" parent="0" />
      </root>
    </mxGraphModel>
  </diagram>
</mxfile>
